<mxfile host="app.diagrams.net" modified="2023-05-31T21:25:36.198Z" agent="Mozilla/5.0 (Windows NT 10.0; Win64; x64) AppleWebKit/537.36 (KHTML, like Gecko) Chrome/113.0.0.0 Safari/537.36" etag="gHzVQGFm-OolrrNGQpc8" version="21.3.6" type="device">
  <diagram name="Page-1" id="9Mu2Q-lrdZNDiss-LxId">
    <mxGraphModel dx="2055" dy="867" grid="1" gridSize="10" guides="1" tooltips="1" connect="1" arrows="1" fold="1" page="1" pageScale="1" pageWidth="850" pageHeight="1100" math="0" shadow="0">
      <root>
        <mxCell id="0" />
        <mxCell id="1" parent="0" />
        <mxCell id="Ysow31x6iqj6A_AAamL0-34" value="&lt;h1&gt;user Context&lt;/h1&gt;&lt;div&gt;&lt;br&gt;&lt;/div&gt;&lt;div&gt;&lt;br&gt;&lt;/div&gt;&lt;div&gt;&lt;br&gt;&lt;/div&gt;&lt;div&gt;&lt;br&gt;&lt;/div&gt;&lt;div&gt;&lt;br&gt;&lt;/div&gt;&lt;div&gt;&lt;br&gt;&lt;/div&gt;&lt;div&gt;&lt;br&gt;&lt;/div&gt;&lt;div&gt;&lt;br&gt;&lt;/div&gt;&lt;div&gt;&lt;br&gt;&lt;/div&gt;&lt;div&gt;&lt;br&gt;&lt;/div&gt;&lt;div&gt;&lt;br&gt;&lt;/div&gt;&lt;div&gt;&lt;br&gt;&lt;/div&gt;&lt;div&gt;&lt;br&gt;&lt;/div&gt;&lt;div&gt;&lt;br&gt;&lt;/div&gt;&lt;div&gt;&lt;br&gt;&lt;/div&gt;&lt;div&gt;&lt;br&gt;&lt;/div&gt;&lt;div&gt;&lt;br&gt;&lt;/div&gt;&lt;div&gt;&lt;br&gt;&lt;/div&gt;&lt;div&gt;&lt;br&gt;&lt;/div&gt;&lt;div&gt;&lt;br&gt;&lt;/div&gt;&lt;div&gt;&lt;br&gt;&lt;/div&gt;&lt;div&gt;&lt;br&gt;&lt;/div&gt;&lt;div&gt;&lt;br&gt;&lt;/div&gt;&lt;div&gt;&lt;br&gt;&lt;/div&gt;&lt;div&gt;&lt;br&gt;&lt;/div&gt;&lt;div&gt;&lt;br&gt;&lt;/div&gt;&lt;div&gt;&lt;br&gt;&lt;/div&gt;&lt;div&gt;&lt;br&gt;&lt;/div&gt;&lt;div&gt;&lt;br&gt;&lt;/div&gt;&lt;div&gt;&lt;br&gt;&lt;/div&gt;&lt;div&gt;&lt;br&gt;&lt;/div&gt;&lt;div&gt;&lt;br&gt;&lt;/div&gt;&lt;div&gt;&lt;br&gt;&lt;/div&gt;&lt;div&gt;&lt;br&gt;&lt;/div&gt;&lt;div&gt;&lt;br&gt;&lt;/div&gt;&lt;div&gt;&lt;br&gt;&lt;/div&gt;" style="rounded=0;whiteSpace=wrap;html=1;fillColor=#d5e8d4;strokeColor=#82b366;" vertex="1" parent="1">
          <mxGeometry x="-190" y="230" width="1250" height="630" as="geometry" />
        </mxCell>
        <mxCell id="Ysow31x6iqj6A_AAamL0-35" style="edgeStyle=orthogonalEdgeStyle;rounded=0;orthogonalLoop=1;jettySize=auto;html=1;entryX=0.5;entryY=0;entryDx=0;entryDy=0;exitX=0.821;exitY=1.019;exitDx=0;exitDy=0;exitPerimeter=0;" edge="1" parent="1" source="Ysow31x6iqj6A_AAamL0-42" target="Ysow31x6iqj6A_AAamL0-36">
          <mxGeometry relative="1" as="geometry">
            <Array as="points">
              <mxPoint x="649" y="335" />
              <mxPoint x="650" y="335" />
              <mxPoint x="650" y="360" />
              <mxPoint x="800" y="360" />
            </Array>
          </mxGeometry>
        </mxCell>
        <mxCell id="Ysow31x6iqj6A_AAamL0-36" value="navbar&lt;br&gt;(logged In)" style="rounded=0;whiteSpace=wrap;html=1;fillColor=#f8cecc;strokeColor=#b85450;" vertex="1" parent="1">
          <mxGeometry x="740" y="390" width="120" height="60" as="geometry" />
        </mxCell>
        <mxCell id="Ysow31x6iqj6A_AAamL0-37" value="&lt;h5&gt;&lt;font style=&quot;font-size: 12px;&quot;&gt;Links&lt;/font&gt;&lt;/h5&gt;-Homepage&lt;br&gt;-CompanyPage&lt;br&gt;-JobListPage&lt;br&gt;-Profile&lt;br&gt;-Logout" style="rounded=0;whiteSpace=wrap;html=1;fillColor=#e1d5e7;strokeColor=#9673a6;" vertex="1" parent="1">
          <mxGeometry x="740" y="530" width="120" height="140" as="geometry" />
        </mxCell>
        <mxCell id="Ysow31x6iqj6A_AAamL0-38" value="" style="endArrow=none;html=1;rounded=0;entryX=0.5;entryY=1;entryDx=0;entryDy=0;exitX=0.5;exitY=0;exitDx=0;exitDy=0;" edge="1" parent="1" source="Ysow31x6iqj6A_AAamL0-37" target="Ysow31x6iqj6A_AAamL0-36">
          <mxGeometry width="50" height="50" relative="1" as="geometry">
            <mxPoint x="703" y="560" as="sourcePoint" />
            <mxPoint x="733" y="600" as="targetPoint" />
            <Array as="points">
              <mxPoint x="800" y="480" />
            </Array>
          </mxGeometry>
        </mxCell>
        <mxCell id="Ysow31x6iqj6A_AAamL0-40" style="edgeStyle=orthogonalEdgeStyle;rounded=0;orthogonalLoop=1;jettySize=auto;html=1;" edge="1" parent="1" target="Ysow31x6iqj6A_AAamL0-50">
          <mxGeometry relative="1" as="geometry">
            <mxPoint x="360" y="480" as="sourcePoint" />
            <Array as="points">
              <mxPoint x="190" y="480" />
              <mxPoint x="190" y="560" />
            </Array>
          </mxGeometry>
        </mxCell>
        <mxCell id="Ysow31x6iqj6A_AAamL0-41" style="edgeStyle=orthogonalEdgeStyle;rounded=0;orthogonalLoop=1;jettySize=auto;html=1;exitX=0.25;exitY=1;exitDx=0;exitDy=0;" edge="1" parent="1" source="Ysow31x6iqj6A_AAamL0-42" target="Ysow31x6iqj6A_AAamL0-54">
          <mxGeometry relative="1" as="geometry" />
        </mxCell>
        <mxCell id="Ysow31x6iqj6A_AAamL0-42" value="App" style="rounded=0;whiteSpace=wrap;html=1;fillColor=#f5f5f5;gradientColor=#b3b3b3;strokeColor=#666666;" vertex="1" parent="1">
          <mxGeometry x="550" y="290" width="120" height="60" as="geometry" />
        </mxCell>
        <mxCell id="Ysow31x6iqj6A_AAamL0-43" value="" style="edgeStyle=orthogonalEdgeStyle;rounded=0;orthogonalLoop=1;jettySize=auto;html=1;" edge="1" parent="1" source="Ysow31x6iqj6A_AAamL0-44" target="Ysow31x6iqj6A_AAamL0-49">
          <mxGeometry relative="1" as="geometry" />
        </mxCell>
        <mxCell id="Ysow31x6iqj6A_AAamL0-44" value="Job List" style="rounded=0;whiteSpace=wrap;html=1;" vertex="1" parent="1">
          <mxGeometry x="280" y="640" width="120" height="60" as="geometry" />
        </mxCell>
        <mxCell id="Ysow31x6iqj6A_AAamL0-45" value="" style="edgeStyle=orthogonalEdgeStyle;rounded=0;orthogonalLoop=1;jettySize=auto;html=1;" edge="1" parent="1" source="Ysow31x6iqj6A_AAamL0-47" target="Ysow31x6iqj6A_AAamL0-44">
          <mxGeometry relative="1" as="geometry" />
        </mxCell>
        <mxCell id="Ysow31x6iqj6A_AAamL0-46" style="edgeStyle=orthogonalEdgeStyle;rounded=0;orthogonalLoop=1;jettySize=auto;html=1;exitX=0.75;exitY=1;exitDx=0;exitDy=0;entryX=0.5;entryY=0;entryDx=0;entryDy=0;" edge="1" parent="1" source="Ysow31x6iqj6A_AAamL0-47" target="Ysow31x6iqj6A_AAamL0-48">
          <mxGeometry relative="1" as="geometry">
            <Array as="points">
              <mxPoint x="470" y="615" />
              <mxPoint x="500" y="615" />
            </Array>
          </mxGeometry>
        </mxCell>
        <mxCell id="Ysow31x6iqj6A_AAamL0-47" value="Job List Page" style="rounded=0;whiteSpace=wrap;html=1;fillColor=#f8cecc;strokeColor=#b85450;" vertex="1" parent="1">
          <mxGeometry x="380" y="530" width="120" height="60" as="geometry" />
        </mxCell>
        <mxCell id="Ysow31x6iqj6A_AAamL0-48" value="Search Form" style="rounded=0;whiteSpace=wrap;html=1;" vertex="1" parent="1">
          <mxGeometry x="440" y="680" width="120" height="60" as="geometry" />
        </mxCell>
        <mxCell id="Ysow31x6iqj6A_AAamL0-49" value="Job Card" style="rounded=0;whiteSpace=wrap;html=1;fillColor=#dae8fc;strokeColor=#6c8ebf;" vertex="1" parent="1">
          <mxGeometry x="280" y="750" width="120" height="60" as="geometry" />
        </mxCell>
        <mxCell id="Ysow31x6iqj6A_AAamL0-50" value="Homepage" style="rounded=0;whiteSpace=wrap;html=1;fillColor=#ffe6cc;strokeColor=#d79b00;" vertex="1" parent="1">
          <mxGeometry x="150" y="530" width="80" height="60" as="geometry" />
        </mxCell>
        <mxCell id="Ysow31x6iqj6A_AAamL0-51" style="edgeStyle=orthogonalEdgeStyle;rounded=0;orthogonalLoop=1;jettySize=auto;html=1;entryX=0.5;entryY=0;entryDx=0;entryDy=0;" edge="1" parent="1" source="Ysow31x6iqj6A_AAamL0-54" target="Ysow31x6iqj6A_AAamL0-56">
          <mxGeometry relative="1" as="geometry">
            <Array as="points">
              <mxPoint x="500" y="480" />
              <mxPoint x="300" y="480" />
            </Array>
          </mxGeometry>
        </mxCell>
        <mxCell id="Ysow31x6iqj6A_AAamL0-52" style="edgeStyle=orthogonalEdgeStyle;rounded=0;orthogonalLoop=1;jettySize=auto;html=1;" edge="1" parent="1" source="Ysow31x6iqj6A_AAamL0-54" target="Ysow31x6iqj6A_AAamL0-61">
          <mxGeometry relative="1" as="geometry">
            <Array as="points">
              <mxPoint x="500" y="480" />
              <mxPoint x="573" y="480" />
            </Array>
          </mxGeometry>
        </mxCell>
        <mxCell id="Ysow31x6iqj6A_AAamL0-53" style="edgeStyle=orthogonalEdgeStyle;rounded=0;orthogonalLoop=1;jettySize=auto;html=1;entryX=0.5;entryY=0;entryDx=0;entryDy=0;" edge="1" parent="1" source="Ysow31x6iqj6A_AAamL0-54" target="Ysow31x6iqj6A_AAamL0-47">
          <mxGeometry relative="1" as="geometry">
            <Array as="points">
              <mxPoint x="500" y="480" />
              <mxPoint x="440" y="480" />
            </Array>
          </mxGeometry>
        </mxCell>
        <mxCell id="Ysow31x6iqj6A_AAamL0-54" value="Route List" style="rounded=0;whiteSpace=wrap;html=1;fillColor=#e1d5e7;strokeColor=#9673a6;" vertex="1" parent="1">
          <mxGeometry x="440" y="390" width="120" height="60" as="geometry" />
        </mxCell>
        <mxCell id="Ysow31x6iqj6A_AAamL0-55" style="edgeStyle=orthogonalEdgeStyle;rounded=0;orthogonalLoop=1;jettySize=auto;html=1;" edge="1" parent="1" source="Ysow31x6iqj6A_AAamL0-56" target="Ysow31x6iqj6A_AAamL0-44">
          <mxGeometry relative="1" as="geometry" />
        </mxCell>
        <mxCell id="Ysow31x6iqj6A_AAamL0-56" value="Company Details Page" style="rounded=0;whiteSpace=wrap;html=1;fillColor=#f8cecc;strokeColor=#b85450;" vertex="1" parent="1">
          <mxGeometry x="240" y="530" width="120" height="60" as="geometry" />
        </mxCell>
        <mxCell id="Ysow31x6iqj6A_AAamL0-57" value="jobs" style="rhombus;whiteSpace=wrap;html=1;fillColor=#60a917;fontColor=#ffffff;strokeColor=#2D7600;" vertex="1" parent="1">
          <mxGeometry x="460" y="495" width="60" height="60" as="geometry" />
        </mxCell>
        <mxCell id="Ysow31x6iqj6A_AAamL0-58" value="Form&lt;br&gt;Data" style="rhombus;whiteSpace=wrap;html=1;fillColor=#60a917;fontColor=#ffffff;strokeColor=#2D7600;" vertex="1" parent="1">
          <mxGeometry x="529" y="654" width="60" height="54" as="geometry" />
        </mxCell>
        <mxCell id="Ysow31x6iqj6A_AAamL0-59" style="edgeStyle=orthogonalEdgeStyle;rounded=0;orthogonalLoop=1;jettySize=auto;html=1;entryX=0.5;entryY=0;entryDx=0;entryDy=0;" edge="1" parent="1" source="Ysow31x6iqj6A_AAamL0-61" target="Ysow31x6iqj6A_AAamL0-48">
          <mxGeometry relative="1" as="geometry">
            <mxPoint x="500" y="642" as="targetPoint" />
            <Array as="points">
              <mxPoint x="573" y="615" />
              <mxPoint x="500" y="615" />
            </Array>
          </mxGeometry>
        </mxCell>
        <mxCell id="Ysow31x6iqj6A_AAamL0-60" style="edgeStyle=orthogonalEdgeStyle;rounded=0;orthogonalLoop=1;jettySize=auto;html=1;exitX=0.75;exitY=1;exitDx=0;exitDy=0;entryX=0.5;entryY=0;entryDx=0;entryDy=0;" edge="1" parent="1" source="Ysow31x6iqj6A_AAamL0-61" target="Ysow31x6iqj6A_AAamL0-63">
          <mxGeometry relative="1" as="geometry" />
        </mxCell>
        <mxCell id="Ysow31x6iqj6A_AAamL0-61" value="Companies List Page" style="rounded=0;whiteSpace=wrap;html=1;fillColor=#f8cecc;strokeColor=#b85450;" vertex="1" parent="1">
          <mxGeometry x="513" y="530" width="120" height="60" as="geometry" />
        </mxCell>
        <mxCell id="Ysow31x6iqj6A_AAamL0-62" value="companies" style="rhombus;whiteSpace=wrap;html=1;fillColor=#60a917;fontColor=#ffffff;strokeColor=#2D7600;" vertex="1" parent="1">
          <mxGeometry x="602" y="489" width="77" height="70" as="geometry" />
        </mxCell>
        <mxCell id="Ysow31x6iqj6A_AAamL0-63" value="Company Card" style="rounded=0;whiteSpace=wrap;html=1;fillColor=#dae8fc;strokeColor=#6c8ebf;" vertex="1" parent="1">
          <mxGeometry x="603" y="640" width="120" height="60" as="geometry" />
        </mxCell>
        <mxCell id="Ysow31x6iqj6A_AAamL0-64" value="company" style="rhombus;whiteSpace=wrap;html=1;fillColor=#60a917;fontColor=#ffffff;strokeColor=#2D7600;" vertex="1" parent="1">
          <mxGeometry x="320" y="495" width="65" height="65" as="geometry" />
        </mxCell>
        <mxCell id="Ysow31x6iqj6A_AAamL0-65" value="ajax&lt;br&gt;call" style="ellipse;whiteSpace=wrap;html=1;aspect=fixed;fillColor=#6a00ff;fontColor=#ffffff;strokeColor=#3700CC;" vertex="1" parent="1">
          <mxGeometry x="513" y="515" width="30" height="30" as="geometry" />
        </mxCell>
        <mxCell id="Ysow31x6iqj6A_AAamL0-76" style="edgeStyle=orthogonalEdgeStyle;rounded=0;orthogonalLoop=1;jettySize=auto;html=1;exitX=1;exitY=0.5;exitDx=0;exitDy=0;entryX=0.108;entryY=-0.018;entryDx=0;entryDy=0;entryPerimeter=0;" edge="1" parent="1" source="Ysow31x6iqj6A_AAamL0-66" target="Ysow31x6iqj6A_AAamL0-47">
          <mxGeometry relative="1" as="geometry" />
        </mxCell>
        <mxCell id="Ysow31x6iqj6A_AAamL0-66" value="ajax&lt;br&gt;call" style="ellipse;whiteSpace=wrap;html=1;aspect=fixed;fillColor=#6a00ff;fontColor=#ffffff;strokeColor=#3700CC;" vertex="1" parent="1">
          <mxGeometry x="380" y="515" width="30" height="30" as="geometry" />
        </mxCell>
        <mxCell id="Ysow31x6iqj6A_AAamL0-67" value="ajax&lt;br&gt;call" style="ellipse;whiteSpace=wrap;html=1;aspect=fixed;fillColor=#6a00ff;fontColor=#ffffff;strokeColor=#3700CC;" vertex="1" parent="1">
          <mxGeometry x="230" y="515" width="30" height="30" as="geometry" />
        </mxCell>
        <mxCell id="Ysow31x6iqj6A_AAamL0-68" value="{user, prefs}" style="rhombus;whiteSpace=wrap;html=1;fillColor=#60a917;fontColor=#ffffff;strokeColor=#2D7600;" vertex="1" parent="1">
          <mxGeometry x="633" y="260" width="77" height="70" as="geometry" />
        </mxCell>
        <mxCell id="Ysow31x6iqj6A_AAamL0-71" value="" style="endArrow=classic;html=1;rounded=0;entryX=0.621;entryY=0.037;entryDx=0;entryDy=0;entryPerimeter=0;" edge="1" parent="1" target="Ysow31x6iqj6A_AAamL0-78">
          <mxGeometry width="50" height="50" relative="1" as="geometry">
            <mxPoint x="190" y="480" as="sourcePoint" />
            <mxPoint y="510" as="targetPoint" />
            <Array as="points">
              <mxPoint y="480" />
              <mxPoint y="510" />
              <mxPoint y="520" />
            </Array>
          </mxGeometry>
        </mxCell>
        <mxCell id="Ysow31x6iqj6A_AAamL0-97" style="edgeStyle=orthogonalEdgeStyle;rounded=0;orthogonalLoop=1;jettySize=auto;html=1;" edge="1" parent="1" source="Ysow31x6iqj6A_AAamL0-72" target="Ysow31x6iqj6A_AAamL0-94">
          <mxGeometry relative="1" as="geometry" />
        </mxCell>
        <mxCell id="Ysow31x6iqj6A_AAamL0-72" value="Profile" style="rounded=0;whiteSpace=wrap;html=1;fillColor=#f8cecc;strokeColor=#b85450;" vertex="1" parent="1">
          <mxGeometry x="50" y="530" width="80" height="60" as="geometry" />
        </mxCell>
        <mxCell id="Ysow31x6iqj6A_AAamL0-77" value="Login" style="rounded=0;whiteSpace=wrap;html=1;fillColor=#fff2cc;strokeColor=#d6b656;" vertex="1" parent="1">
          <mxGeometry x="-150" y="530" width="80" height="60" as="geometry" />
        </mxCell>
        <mxCell id="Ysow31x6iqj6A_AAamL0-96" style="edgeStyle=orthogonalEdgeStyle;rounded=0;orthogonalLoop=1;jettySize=auto;html=1;" edge="1" parent="1" source="Ysow31x6iqj6A_AAamL0-78">
          <mxGeometry relative="1" as="geometry">
            <mxPoint y="650" as="targetPoint" />
            <Array as="points">
              <mxPoint x="-10" y="610" />
              <mxPoint x="1" y="610" />
            </Array>
          </mxGeometry>
        </mxCell>
        <mxCell id="Ysow31x6iqj6A_AAamL0-78" value="Signup" style="rounded=0;whiteSpace=wrap;html=1;fillColor=#fff2cc;strokeColor=#d6b656;" vertex="1" parent="1">
          <mxGeometry x="-50" y="530" width="80" height="60" as="geometry" />
        </mxCell>
        <mxCell id="Ysow31x6iqj6A_AAamL0-79" value="" style="endArrow=classic;html=1;rounded=0;entryX=0.5;entryY=0;entryDx=0;entryDy=0;" edge="1" parent="1" target="Ysow31x6iqj6A_AAamL0-77">
          <mxGeometry width="50" height="50" relative="1" as="geometry">
            <mxPoint y="480" as="sourcePoint" />
            <mxPoint x="-110" y="510" as="targetPoint" />
            <Array as="points">
              <mxPoint x="-110" y="480" />
              <mxPoint x="-110" y="500" />
            </Array>
          </mxGeometry>
        </mxCell>
        <mxCell id="Ysow31x6iqj6A_AAamL0-82" value="" style="endArrow=classic;html=1;rounded=0;entryX=0.5;entryY=0;entryDx=0;entryDy=0;" edge="1" parent="1" target="Ysow31x6iqj6A_AAamL0-72">
          <mxGeometry width="50" height="50" relative="1" as="geometry">
            <mxPoint x="90" y="480" as="sourcePoint" />
            <mxPoint x="90" y="510" as="targetPoint" />
          </mxGeometry>
        </mxCell>
        <mxCell id="Ysow31x6iqj6A_AAamL0-87" style="edgeStyle=orthogonalEdgeStyle;rounded=0;orthogonalLoop=1;jettySize=auto;html=1;" edge="1" parent="1" source="Ysow31x6iqj6A_AAamL0-83" target="Ysow31x6iqj6A_AAamL0-86">
          <mxGeometry relative="1" as="geometry" />
        </mxCell>
        <mxCell id="Ysow31x6iqj6A_AAamL0-83" value="navbar&lt;br&gt;(logged Out)" style="rounded=0;whiteSpace=wrap;html=1;fillColor=#fff2cc;strokeColor=#d6b656;" vertex="1" parent="1">
          <mxGeometry x="910" y="390" width="120" height="60" as="geometry" />
        </mxCell>
        <mxCell id="Ysow31x6iqj6A_AAamL0-84" value="" style="endArrow=classic;html=1;rounded=0;entryX=0.5;entryY=0;entryDx=0;entryDy=0;" edge="1" parent="1" target="Ysow31x6iqj6A_AAamL0-83">
          <mxGeometry width="50" height="50" relative="1" as="geometry">
            <mxPoint x="800" y="360" as="sourcePoint" />
            <mxPoint x="680" y="540" as="targetPoint" />
            <Array as="points">
              <mxPoint x="970" y="360" />
            </Array>
          </mxGeometry>
        </mxCell>
        <mxCell id="Ysow31x6iqj6A_AAamL0-86" value="&lt;h5&gt;&lt;font style=&quot;font-size: 12px;&quot;&gt;Links&lt;/font&gt;&lt;/h5&gt;-Login&lt;br&gt;-Singup&lt;br&gt;-Homepage&lt;br&gt;" style="rounded=0;whiteSpace=wrap;html=1;fillColor=#e1d5e7;strokeColor=#9673a6;" vertex="1" parent="1">
          <mxGeometry x="910" y="530" width="120" height="110" as="geometry" />
        </mxCell>
        <mxCell id="Ysow31x6iqj6A_AAamL0-91" value="ajax&lt;br&gt;call" style="ellipse;whiteSpace=wrap;html=1;aspect=fixed;fillColor=#6a00ff;fontColor=#ffffff;strokeColor=#3700CC;" vertex="1" parent="1">
          <mxGeometry x="-150" y="515" width="30" height="30" as="geometry" />
        </mxCell>
        <mxCell id="Ysow31x6iqj6A_AAamL0-92" value="ajax&lt;br&gt;call" style="ellipse;whiteSpace=wrap;html=1;aspect=fixed;fillColor=#6a00ff;fontColor=#ffffff;strokeColor=#3700CC;" vertex="1" parent="1">
          <mxGeometry x="-50" y="515" width="30" height="30" as="geometry" />
        </mxCell>
        <mxCell id="Ysow31x6iqj6A_AAamL0-93" value="ajax&lt;br&gt;call" style="ellipse;whiteSpace=wrap;html=1;aspect=fixed;fillColor=#6a00ff;fontColor=#ffffff;strokeColor=#3700CC;" vertex="1" parent="1">
          <mxGeometry x="50" y="515" width="30" height="30" as="geometry" />
        </mxCell>
        <mxCell id="Ysow31x6iqj6A_AAamL0-94" value="Alert" style="rounded=0;whiteSpace=wrap;html=1;fillColor=#f5f5f5;gradientColor=#b3b3b3;strokeColor=#666666;" vertex="1" parent="1">
          <mxGeometry x="-60" y="648" width="120" height="60" as="geometry" />
        </mxCell>
        <mxCell id="Ysow31x6iqj6A_AAamL0-95" value="" style="endArrow=classic;html=1;rounded=0;exitX=0.5;exitY=1;exitDx=0;exitDy=0;entryX=0.5;entryY=0;entryDx=0;entryDy=0;" edge="1" parent="1" source="Ysow31x6iqj6A_AAamL0-77" target="Ysow31x6iqj6A_AAamL0-94">
          <mxGeometry width="50" height="50" relative="1" as="geometry">
            <mxPoint x="370" y="590" as="sourcePoint" />
            <mxPoint x="420" y="540" as="targetPoint" />
            <Array as="points">
              <mxPoint x="-110" y="610" />
              <mxPoint x="-40" y="610" />
              <mxPoint y="610" />
            </Array>
          </mxGeometry>
        </mxCell>
      </root>
    </mxGraphModel>
  </diagram>
</mxfile>
